<?xml version="1.0" encoding="utf-8"?>
<svg version="1.1" xmlns:xlink="http://www.w3.org/1999/xlink" width="40px" height="50px" xmlns="http://www.w3.org/2000/svg">
  <defs>
    <filter x="546px" y="714px" width="40px" height="50px" filterUnits="userSpaceOnUse" id="filter1">
      <feOffset dx="1" dy="1" in="SourceAlpha" result="shadowOffsetInner" />
      <feGaussianBlur stdDeviation="2.5" in="shadowOffsetInner" result="shadowGaussian" />
      <feComposite in2="shadowGaussian" operator="atop" in="SourceAlpha" result="shadowComposite" />
      <feColorMatrix type="matrix" values="0 0 0 0 0  0 0 0 0 0  0 0 0 0 0  0 0 0 0.698039215686274 0  " in="shadowComposite" />
    </filter>
    <g id="widget2">
      <path d="M 565 757.036928468354  C 559.2 747.40734059591  550.5 741.629587872444  550.5 732  C 550.5 726.985714285714  553.4 718.5  565 718.5  C 576.6 718.5  579.5 726.985714285714  579.5 732  C 579.5 741.629587872444  570.8 747.40734059591  565 757.036928468354  Z " fill-rule="nonzero" fill="#009dd9" stroke="none" />
      <path d="M 565 758  C 559 748  550 742  550 732  C 550 726.8  553 718  565 718  C 577 718  580 726.8  580 732  C 580 742  571 748  565 758  Z M 565 756.073856936707  C 570.6 746.81468119182  579 741.259175744887  579 732  C 579 727.171428571429  576.2 719  565 719  C 553.8 719  551 727.171428571429  551 732  C 551 741.259175744887  559.4 746.81468119182  565 756.073856936707  Z " fill-rule="nonzero" fill="#ffffff" stroke="none" />
    </g>
  </defs>
  <g transform="matrix(1 0 0 1 -546 -714 )">
    <use xlink:href="#widget2" filter="url(#filter1)" />
    <use xlink:href="#widget2" />
  </g>
</svg>